PathFileType	4	(X/Y/Z)	D:/83_35.trc
DataRate	CameraRate	NumFrames	NumMarkers	Units	OrigDataRate	OrigDataStartFrame	OrigNumFrames
120.00	120.00	4	41	mm	120.00	230	1048
Frame#	Time	LFWT			RFWT			LBWT			RBWT			LTHI			LKNE			LSHN			LANK			LHEE			LMT5			LTOE			RTHI			RKNE			RSHN			RANK			RHEE			RMT5			RTOE			CLAV			STRN			C7			T10			RBAC			LFHD			RFHD			LBHD			RBHD			LSHO			LUPA			LELB			LFRM			LWRA			LWRB			LFIN			RSHO			RUPA			RELB			RFRM			RWRA			RWRB			RFIN
		X1	Y1	Z1	X2	Y2	Z2	X3	Y3	Z3	X4	Y4	Z4	X5	Y5	Z5	X6	Y6	Z6	X7	Y7	Z7	X8	Y8	Z8	X9	Y9	Z9	X10	Y10	Z10	X11	Y11	Z11	X12	Y12	Z12	X13	Y13	Z13	X14	Y14	Z14	X15	Y15	Z15	X16	Y16	Z16	X17	Y17	Z17	X18	Y18	Z18	X19	Y19	Z19	X20	Y20	Z20	X21	Y21	Z21	X22	Y22	Z22	X23	Y23	Z23	X24	Y24	Z24	X25	Y25	Z25	X26	Y26	Z26	X27	Y27	Z27	X28	Y28	Z28	X29	Y29	Z29	X30	Y30	Z30	X31	Y31	Z31	X32	Y32	Z32	X33	Y33	Z33	X34	Y34	Z34	X35	Y35	Z35	X36	Y36	Z36	X37	Y37	Z37	X38	Y38	Z38	X39	Y39	Z39	X40	Y40	Z40	X41	Y41	Z41

132	1.092	1694.78613	355.85123	881.11505	1692.71863	621.44092	872.00330	1860.08569	406.49496	960.73602	1853.69751	547.02417	962.81921	1774.25586	310.85214	590.41113	1778.62183	335.44159	438.14847	1824.36487	315.93439	207.19847	1858.45227	339.67572	77.74818	1914.54089	382.98624	60.89083	1760.69946	313.60269	34.30313	1721.05457	399.96664	53.69232	1774.13110	650.21533	663.61090	1786.85303	613.32617	439.06778	1824.49512	635.42419	328.37909	1855.24133	567.19855	57.70646	1920.68433	518.54950	16.05018	1751.01855	601.12128	33.53866	1712.61108	524.88385	52.24634	1683.27515	462.50467	1310.42310	1672.55713	465.29886	1132.32983	1808.96692	459.24289	1392.31213	1887.24756	468.71539	1181.37048	1880.11426	543.99115	1272.99646	1598.40747	395.12250	1547.28625	1620.04688	555.08057	1539.80725	1751.84521	402.85458	1519.84351	1770.02917	512.64801	1519.16040	1770.92273	318.73657	1382.49402	1822.07178	239.65739	1166.83154	1845.37292	235.89714	1069.09546	1846.91479	224.92883	901.23944	1718.11963	236.07916	807.74164	1855.60046	181.84805	796.43964	1766.15417	196.08806	740.28589	1766.50659	614.06519	1375.43115	1803.78772	685.05676	1263.96204	1870.51587	686.15796	1074.97949	1879.07629	678.45422	1000.41290	1720.65991	732.66846	816.68268	1863.49011	755.88574	801.62433	1829.79443	753.14288	764.51007
133	1.100	1694.96008	355.99936	881.25916	1692.77893	621.60321	871.94739	1860.04602	406.66110	960.80798	1853.67419	547.04248	962.78284	1774.29517	310.82678	590.38782	1778.42249	335.52560	438.45123	1824.29407	315.96664	207.24023	1858.46216	339.70743	77.70269	1914.54089	382.98624	60.89083	1760.71375	313.65988	34.26086	1720.99597	399.87012	53.59202	1773.99207	650.29633	663.50043	1786.56006	613.22125	439.07324	1824.40320	635.50751	328.33527	1855.26123	567.22223	57.68002	1920.65442	518.59363	16.08187	1751.23401	601.07550	33.76406	1712.78979	524.76978	52.11632	1683.25232	462.82373	1310.40833	1672.44165	465.54636	1131.98035	1808.93542	459.36340	1392.47546	1887.35315	468.76202	1181.45374	1880.02966	544.11206	1273.00659	1598.30139	395.01929	1547.03687	1619.52808	555.07336	1539.42700	1751.78516	403.02588	1519.71497	1769.72400	512.86389	1518.92627	1770.83704	318.82281	1382.41882	1821.87842	239.85147	1166.70959	1845.29431	235.92932	1069.14087	1846.26611	225.15210	901.25562	1717.78491	236.16324	808.08142	1855.07361	181.87645	796.31561	1765.31787	196.34810	740.38702	1766.43250	614.16052	1375.41504	1803.70105	685.14905	1263.87244	1870.27332	686.25482	1075.00000	1878.96399	678.48700	1000.27094	1720.17676	732.71533	816.79413	1863.09558	755.94196	801.70142	1829.61133	753.24731	764.64069
134	1.108	1695.04028	356.23737	881.49115	1692.72510	621.95074	872.12585	1859.91797	406.74319	960.63135	1853.63513	547.10431	962.72015	1774.53564	310.88138	590.40131	1778.68237	335.40765	438.20016	1824.15259	315.98694	207.32857	1858.51697	339.72217	77.68140	1914.54089	382.98624	60.89083	1760.67542	313.64316	34.30785	1720.96655	399.87128	53.45001	1773.80615	650.64368	663.52563	1786.26135	613.20264	439.03848	1824.27881	635.45428	328.28186	1855.19568	567.14532	57.61877	1920.34888	518.68579	15.93240	1751.26770	601.01306	33.89652	1713.04419	524.76672	52.03437	1683.16907	463.00455	1310.35681	1672.26611	465.65164	1131.79224	1808.84753	459.64096	1392.32703	1887.33032	468.89706	1181.37744	1880.00256	544.28241	1273.08032	1598.24182	395.48520	1547.20166	1619.82556	555.50824	1539.34875	1751.80151	403.23615	1519.83105	1769.66968	512.98187	1518.91174	1770.79858	318.94107	1382.34985	1821.69421	240.05235	1166.42346	1845.10608	235.90903	1069.04382	1845.61389	225.32205	901.22705	1717.35547	236.33862	808.50543	1854.71741	181.86058	796.22968	1764.35718	196.48212	740.61877	1766.28870	614.28778	1375.41321	1803.66968	685.24988	1263.73804	1870.05359	686.44397	1074.99500	1878.70618	678.51691	1000.15070	1719.72705	732.94110	817.07300	1862.60217	755.98071	801.67908	1828.99817	753.16724	764.57886
135	1.117	1695.08777	356.59332	881.58020	1692.79919	622.32440	872.45618	1859.80383	406.77325	960.31470	1853.59351	547.11969	962.71094	1774.61450	311.02048	590.49280	1778.29785	335.54129	438.56348	1824.08179	315.97498	207.37512	1858.60242	339.68375	77.65511	1914.53577	383.06091	61.07191	1760.55249	313.56784	34.16274	1720.95996	399.86929	53.40837	1773.74573	650.95758	663.55841	1786.04443	613.22046	439.08398	1824.21021	635.40503	328.24738	1855.13013	567.06836	57.55752	1920.22974	518.82935	16.04338	1751.22119	601.08203	33.85842	1713.08215	524.86212	52.06466	1682.93701	462.93378	1310.36438	1672.04382	465.72321	1131.70483	1808.84253	459.96478	1392.28503	1887.19543	469.05490	1181.26587	1879.97363	544.33868	1273.14954	1598.02698	396.51373	1547.69055	1620.53564	556.46729	1539.55103	1751.72522	403.53827	1520.11108	1769.66907	513.05908	1519.06458	1770.67078	319.10834	1382.18457	1821.51855	240.20703	1166.24170	1844.84021	235.81502	1068.95398	1845.20203	225.25772	901.24213	1716.75598	236.51054	808.79761	1854.20166	181.94199	796.13049	1763.66919	196.57504	740.84924	1766.02625	614.42145	1375.31433	1803.57324	685.37439	1263.59729	1870.02588	686.63403	1074.82996	1878.48059	678.56744	1000.05750	1719.12781	733.07813	817.28308	1861.82458	755.91174	801.53400	1828.24658	753.08392	764.55438
